<svg id="_x31__x2C_5" enable-background="new 0 0 24 24" height="512" viewBox="0 0 24 24" width="512" xmlns="http://www.w3.org/2000/svg"><g><path d="m7.543 13.748c-.059 0-.117-.007-.176-.021l-2.792-.667c-.264-.063-.473-.265-.547-.525-.074-.263-.001-.543.192-.735 1.203-1.205 3.14-1.891 5.451-1.932h.014c.408 0 .742.327.75.736.007.415-.322.756-.736.764-.781.014-2.026.126-3.132.625l1.15.275c.402.097.651.501.555.904-.083.345-.39.576-.729.576z"/></g><g><path d="m10.397 17.756c-.192 0-.384-.073-.53-.22l-3.403-3.403c-.282-.282-.294-.735-.027-1.032l2.788-3.095c2.055-2.376 5.204-3.952 8.01-4.006.195-.01.4.075.545.22s.224.341.22.545c-.054 2.807-1.63 5.955-4.017 8.021l-3.084 2.778c-.142.128-.322.192-.502.192zm-2.369-4.181 2.396 2.396 2.565-2.312c1.821-1.576 3.132-3.933 3.441-6.092-2.159.31-4.515 1.618-6.082 3.431z"/></g><g><path d="m11.67 20c-.068 0-.137-.009-.204-.028-.261-.074-.462-.283-.525-.547l-.668-2.792c-.097-.403.152-.808.555-.904.398-.09.809.151.904.555l.275 1.15c.499-1.105.611-2.351.625-3.132.008-.409.342-.736.75-.736h.014c.414.008.743.349.736.764-.041 2.312-.727 4.248-1.932 5.451-.142.142-.334.219-.53.219z"/></g><g><path d="m3.75 21c-.196 0-.388-.077-.53-.22-.195-.195-.268-.481-.188-.745.252-.841.9-2.859 1.478-3.437.797-.797 2.094-.796 2.893-.001.796.799.796 2.096.001 2.894-.001 0-.001 0-.001 0-.577.577-2.596 1.226-3.437 1.478-.071.02-.144.031-.216.031zm2.205-3.5c-.14 0-.279.054-.386.16-.138.151-.385.727-.634 1.405.679-.249 1.249-.495 1.407-.637.21-.213.209-.558-.003-.77-.105-.105-.244-.158-.384-.158zm.916 1.461h.01z"/></g><g><path d="m21.25 24h-18.5c-1.517 0-2.75-1.233-2.75-2.75v-16.5c0-1.517 1.233-2.75 2.75-2.75h18.5c1.517 0 2.75 1.233 2.75 2.75v16.5c0 1.517-1.233 2.75-2.75 2.75zm-18.5-20.5c-.689 0-1.25.561-1.25 1.25v16.5c0 .689.561 1.25 1.25 1.25h18.5c.689 0 1.25-.561 1.25-1.25v-16.5c0-.689-.561-1.25-1.25-1.25z"/></g><g><path d="m9.25 7h-8.5c-.414 0-.75-.336-.75-.75s.336-.75.75-.75h8.5c.414 0 .75.336.75.75s-.336.75-.75.75z"/></g><g><path d="m23 7h-2.25c-.414 0-.75-.336-.75-.75s.336-.75.75-.75h2.25c.414 0 .75.336.75.75s-.336.75-.75.75z"/></g></svg>